<svg width="26" height="26" viewBox="0 0 26 26" fill="none" xmlns="http://www.w3.org/2000/svg">
<g clip-path="url(#clip0_188_1742)">
<path d="M23.5625 14.2168H4.0625V5.07619C4.06156 4.73196 4.1289 4.39096 4.26064 4.07294C4.39237 3.75491 4.58588 3.46617 4.82996 3.22344L4.85027 3.20313C5.23279 2.82117 5.7239 2.56663 6.25651 2.47426C6.78912 2.3819 7.33727 2.45623 7.82605 2.68709C7.36443 3.45459 7.17256 4.35435 7.28093 5.2434C7.3893 6.13245 7.79169 6.95978 8.42415 7.59393L8.98026 8.15003L7.95666 9.17368L9.10564 10.3227L10.1292 9.29906L15.8009 3.62745L16.8245 2.60386L15.6755 1.45483L14.6519 2.47843L14.0958 1.92232C13.4299 1.25837 12.5523 0.849089 11.6157 0.765795C10.6791 0.6825 9.74299 0.930476 8.97046 1.46651C8.15583 0.95205 7.19046 0.729955 6.23292 0.836707C5.27537 0.94346 4.38261 1.37271 3.70129 2.05395L3.68098 2.07426C3.28552 2.46756 2.97199 2.93539 2.75855 3.45067C2.5451 3.96595 2.43598 4.51845 2.4375 5.07619V14.2168H0.8125V15.8418H2.4375V17.4008C2.43746 17.5318 2.45859 17.6619 2.50006 17.7862L4.01172 22.3209C4.09239 22.5637 4.24751 22.7749 4.45504 22.9245C4.66258 23.0741 4.91197 23.1545 5.1678 23.1543H5.82288L5.23047 25.1856H6.92316L7.51562 23.1543H18.0832L18.6926 25.1856H20.3887L19.7793 23.1543H20.832C21.0879 23.1546 21.3373 23.0742 21.5449 22.9246C21.7525 22.775 21.9076 22.5638 21.9883 22.3209L23.4998 17.7862C23.5413 17.6619 23.5625 17.5318 23.5625 17.4008V15.8418H25.1875V14.2168H23.5625ZM9.57328 3.07135C10.021 2.62464 10.6276 2.37376 11.26 2.37376C11.8924 2.37376 12.499 2.62464 12.9467 3.07135L13.5027 3.62745L10.1294 7.0008L9.57328 6.4448C9.12659 5.9971 8.87573 5.3905 8.87573 4.75807C8.87573 4.12565 9.12659 3.51905 9.57328 3.07135ZM21.9375 17.3348L20.5394 21.5293H5.46061L4.0625 17.3348V15.8418H21.9375V17.3348Z" fill="#15399E"/>
</g>
<defs>
<clipPath id="clip0_188_1742">
<rect width="26" height="26" fill="white"/>
</clipPath>
</defs>
</svg>
