<svg width="33" height="33" viewBox="0 0 33 33" fill="none" xmlns="http://www.w3.org/2000/svg">
<path d="M11 6.875C10.3125 6.875 9.625 7.16375 9.08875 7.7C8.5525 8.23625 8.25 8.86875 8.25 9.625V13.75C7.52125 13.75 6.875 14.0113 6.31125 14.5613C5.7475 15.1112 5.5 15.7712 5.5 16.5V23.375H7.3425L8.25 26.125H9.625L10.5738 23.375H22.495L23.375 26.125H24.75L25.6575 23.375H27.5V16.5C27.5 15.7712 27.2388 15.125 26.6887 14.5613C26.1388 13.9975 25.4788 13.75 24.75 13.75V9.625C24.75 8.86875 24.475 8.25 23.9112 7.7C23.3475 7.15 22.6875 6.875 22 6.875M11 9.625H15.125V13.75H11M17.875 9.625H22V13.75H17.875M8.25 16.5H24.75V20.625H8.25V16.5Z" fill="#15399E"/>
</svg>
