<svg width="22" height="22" viewBox="0 0 22 22" fill="none" xmlns="http://www.w3.org/2000/svg">
<path fill-rule="evenodd" clip-rule="evenodd" d="M11 0.875C5.417 0.875 0.875 5.417 0.875 11C0.875 16.583 5.417 21.125 11 21.125C16.583 21.125 21.125 16.583 21.125 11C21.125 5.417 16.583 0.875 11 0.875ZM11 18.875C6.658 18.875 3.125 15.342 3.125 11C3.125 6.658 6.658 3.125 11 3.125C15.342 3.125 18.875 6.658 18.875 11C18.875 15.342 15.342 18.875 11 18.875ZM10 12.409L15.205 7.205L16.795 8.795L10 15.591L6.205 11.795L7.795 10.205L10 12.409Z" fill="#15399E"/>
</svg>
