<svg width="26" height="26" viewBox="0 0 26 26" fill="none" xmlns="http://www.w3.org/2000/svg">
<path d="M13.0005 2.24224L1.00391 8.42018L1.62547 8.83258L13.0005 3.14508L24.3755 8.83258L24.997 8.42023L13.0005 2.24219V2.24224ZM13.0005 4.16705L2.0825 9.62604V25.1366H3.60594V10.3084H22.395V25.1366H23.9184V9.62604L13.0005 4.16705ZM4.67234 11.3241V12.2381H21.3286V11.3241H4.67234ZM4.67234 13.1522V14.0662H21.3286V13.1522H4.67234ZM9.75047 14.9803C9.31883 14.9803 9.01958 15.2608 8.78816 15.5694C8.55681 15.8779 8.3679 16.2651 8.2053 16.6987C7.98846 17.2771 7.82241 17.9345 7.73567 18.5719C7.29276 18.4584 6.61605 18.3469 6.50047 18.6873C6.38093 19.0395 6.87341 19.3771 7.34689 19.6124C7.33064 19.6666 7.3149 19.7226 7.30088 19.7822C7.20983 20.1691 7.16062 20.6475 7.16062 21.1248C7.16062 21.6022 7.20983 22.0805 7.30088 22.4675C7.36548 22.742 7.45871 22.9634 7.54179 23.1053H18.4591C18.5422 22.9634 18.6355 22.742 18.7001 22.4675C18.7911 22.0805 18.8403 21.6022 18.8403 21.1248C18.8403 20.6475 18.7911 20.1691 18.7001 19.7822C18.6864 19.7251 18.6711 19.6685 18.654 19.6124C19.1275 19.3771 19.62 19.0395 19.5005 18.6873C19.3849 18.3469 18.7082 18.4584 18.2653 18.5719C18.1786 17.9345 18.0125 17.2771 17.7956 16.6987C17.633 16.2651 17.4441 15.8779 17.2127 15.5694C16.9814 15.2608 16.6821 14.9803 16.2505 14.9803H9.75047ZM9.75047 15.8944H16.2505C16.2251 15.8944 16.3321 15.9185 16.4815 16.1178C16.631 16.3171 16.7976 16.6408 16.9397 17.0197C17.1262 17.5171 17.2691 18.1083 17.3473 18.6657C16.1588 18.3382 14.8377 18.3319 13.0005 18.3319C11.1632 18.3319 9.84213 18.3382 8.65359 18.6657C8.7318 18.1083 8.87475 17.517 9.06127 17.0197C9.20335 16.6408 9.36992 16.3171 9.51936 16.1178C9.66886 15.9185 9.77586 15.8944 9.75047 15.8944ZM8.93797 20.3123C9.15346 20.3123 9.36012 20.3979 9.51249 20.5503C9.66487 20.7027 9.75047 20.9094 9.75047 21.1248C9.75047 21.3403 9.66487 21.547 9.51249 21.6994C9.36012 21.8517 9.15346 21.9373 8.93797 21.9373C8.72248 21.9373 8.51582 21.8517 8.36344 21.6994C8.21107 21.547 8.12547 21.3403 8.12547 21.1248C8.12547 20.9094 8.21107 20.7027 8.36344 20.5503C8.51582 20.3979 8.72248 20.3123 8.93797 20.3123ZM17.063 20.3123C17.2785 20.3123 17.4851 20.3979 17.6375 20.5503C17.7899 20.7027 17.8755 20.9094 17.8755 21.1248C17.8755 21.3403 17.7899 21.547 17.6375 21.6994C17.4851 21.8517 17.2785 21.9373 17.063 21.9373C16.8475 21.9373 16.6408 21.8517 16.4884 21.6994C16.3361 21.547 16.2505 21.3403 16.2505 21.1248C16.2505 20.9094 16.3361 20.7027 16.4884 20.5503C16.6408 20.3979 16.8475 20.3123 17.063 20.3123ZM7.77 24.0194V25.1366H9.29344V24.0194H7.77ZM16.7075 24.0194V25.1366H18.2309V24.0194H16.7075Z" fill="#2961DC"/>
</svg>
