<svg width="24" height="24" viewBox="0 0 24 24" fill="none" xmlns="http://www.w3.org/2000/svg">
<path fill-rule="evenodd" clip-rule="evenodd" d="M15.894 22.238C12.876 22.238 9.32502 20.636 6.34302 17.656C1.58502 12.897 0.343018 6.68503 3.51502 3.51303C4.45202 2.57703 5.59202 2.00703 6.90702 1.81703L7.66702 1.70703L10.464 8.22903L7.66702 9.62703C8.31502 10.855 9.29702 12.124 10.586 13.413C11.815 14.642 13.083 15.617 14.356 16.309L15.67 13.736L22.153 14.662L22.191 15.489C22.286 17.548 21.696 19.275 20.485 20.485C19.301 21.669 17.692 22.238 15.894 22.238ZM6.46102 3.97103C5.88602 4.16403 5.37202 4.48503 4.92902 4.92903C2.62902 7.22803 3.92502 12.409 7.75702 16.242C11.591 20.075 16.771 21.368 19.071 19.07C19.837 18.304 20.113 17.294 20.181 16.4L16.814 15.919L16.168 17.213C15.924 17.701 15.503 18.06 14.982 18.223C14.461 18.388 13.883 18.329 13.399 18.066C11.959 17.283 10.536 16.193 9.17102 14.828C7.74102 13.398 6.64202 11.969 5.90302 10.58C5.64602 10.095 5.59702 9.54103 5.76302 9.01903C5.92902 8.50003 6.28802 8.08103 6.77502 7.83703L7.88102 7.28403L6.46102 3.97103Z" fill="#15399E"/>
</svg>
