<svg width="35" height="35" viewBox="0 0 35 35" fill="none" xmlns="http://www.w3.org/2000/svg">
<path d="M23.333 13.1224C23.333 20.8953 11.6663 20.8953 11.6663 13.1224H14.583C14.583 17.0161 20.4163 17.0161 20.4163 13.1224M29.1663 26.2474V30.6224H5.83301V26.2474C5.83301 22.3536 13.6059 20.4141 17.4997 20.4141C21.3934 20.4141 29.1663 22.3536 29.1663 26.2474ZM26.3955 26.2474C26.3955 25.3141 21.8309 23.1849 17.4997 23.1849C13.1684 23.1849 8.60384 25.3141 8.60384 26.2474V27.8516H26.3955M18.2288 2.91406C18.6372 2.91406 18.958 3.2349 18.958 3.64323V8.01823H20.4163V4.3724C21.4484 4.85003 22.3131 5.62684 22.8982 6.60202C23.4833 7.5772 23.7618 8.70572 23.6976 9.84115C23.6976 9.84115 24.7184 10.0453 24.7913 11.6641H10.208C10.208 10.0453 11.3018 9.84115 11.3018 9.84115C11.2375 8.70572 11.516 7.5772 12.1011 6.60202C12.6862 5.62684 13.5509 4.85003 14.583 4.3724V8.01823H16.0413V3.64323C16.0413 3.2349 16.3622 2.91406 16.7705 2.91406" fill="#15399E"/>
</svg>
