<svg width="27" height="24" viewBox="0 0 27 24" fill="none" xmlns="http://www.w3.org/2000/svg">
<path d="M14.735 0.332031C21.1867 0.332031 26.4133 5.58203 26.4133 11.9987C26.4133 18.4154 21.1867 23.6654 14.735 23.6654C10.64 23.6654 7.05833 21.542 4.97 18.3337L6.81333 16.8754C8.45833 19.547 11.3867 21.332 14.7467 21.332C17.222 21.332 19.596 20.3487 21.3463 18.5984C23.0967 16.848 24.08 14.4741 24.08 11.9987C24.08 9.52334 23.0967 7.14937 21.3463 5.39903C19.596 3.6487 17.222 2.66536 14.7467 2.66536C9.98667 2.66536 6.06667 6.23536 5.495 10.832H8.715L4.35167 15.1837L0 10.832H3.13833C3.72167 4.94036 8.69167 0.332031 14.735 0.332031ZM18.1883 9.94536C18.7717 9.95703 19.25 10.4237 19.25 11.0187V16.397C19.25 16.9804 18.7717 17.4704 18.1767 17.4704H11.725C11.13 17.4704 10.6517 16.9804 10.6517 16.397V11.0187C10.6517 10.4237 11.13 9.95703 11.7133 9.94536V8.76703C11.7133 6.98203 13.1717 5.53537 14.945 5.53537C16.73 5.53537 18.1883 6.98203 18.1883 8.76703V9.94536ZM14.945 7.1687C14.07 7.1687 13.3467 7.88036 13.3467 8.76703V9.94536H16.555V8.76703C16.555 7.88036 15.8317 7.1687 14.945 7.1687Z" fill="black"/>
</svg>
