<svg width="35" height="35" viewBox="0 0 35 35" fill="none" xmlns="http://www.w3.org/2000/svg">
<circle cx="17.5" cy="17.5" r="17.5" fill="#D9D9D9" fill-opacity="0.29"/>
<path d="M14 21.875H21V20.125H14V21.875ZM16.5812 19.25L21.525 14.3063L20.2781 13.1031L16.5812 16.8L14.7 14.9188L13.475 16.1437L16.5812 19.25ZM17.5 26.25C16.2896 26.25 15.1521 26.0202 14.0875 25.5605C13.0229 25.1014 12.0969 24.4781 11.3094 23.6906C10.5219 22.9031 9.89858 21.9771 9.4395 20.9125C8.97983 19.8479 8.75 18.7104 8.75 17.5C8.75 16.2896 8.97983 15.1521 9.4395 14.0875C9.89858 13.0229 10.5219 12.0969 11.3094 11.3094C12.0969 10.5219 13.0229 9.89829 14.0875 9.43862C15.1521 8.97954 16.2896 8.75 17.5 8.75C18.7104 8.75 19.8479 8.97954 20.9125 9.43862C21.9771 9.89829 22.9031 10.5219 23.6906 11.3094C24.4781 12.0969 25.1014 13.0229 25.5605 14.0875C26.0202 15.1521 26.25 16.2896 26.25 17.5C26.25 18.7104 26.0202 19.8479 25.5605 20.9125C25.1014 21.9771 24.4781 22.9031 23.6906 23.6906C22.9031 24.4781 21.9771 25.1014 20.9125 25.5605C19.8479 26.0202 18.7104 26.25 17.5 26.25ZM17.5 24.5C19.4542 24.5 21.1094 23.8219 22.4656 22.4656C23.8219 21.1094 24.5 19.4542 24.5 17.5C24.5 15.5458 23.8219 13.8906 22.4656 12.5344C21.1094 11.1781 19.4542 10.5 17.5 10.5C15.5458 10.5 13.8906 11.1781 12.5344 12.5344C11.1781 13.8906 10.5 15.5458 10.5 17.5C10.5 19.4542 11.1781 21.1094 12.5344 22.4656C13.8906 23.8219 15.5458 24.5 17.5 24.5Z" fill="white"/>
</svg>
