<svg width="53" height="53" viewBox="0 0 53 53" fill="none" xmlns="http://www.w3.org/2000/svg">
<circle cx="26.5" cy="26.5" r="26.5" fill="#15399E"/>
<path d="M17.4583 39.601C16.7479 39.601 16.1395 39.3397 15.6332 38.817C15.1277 38.2953 14.875 37.6677 14.875 36.9344V18.2677C14.875 17.5344 15.1277 16.9064 15.6332 16.3837C16.1395 15.8619 16.7479 15.601 17.4583 15.601H28.9865L26.4031 18.2677H17.4583V36.9344H35.5417V27.6677L38.125 25.001V36.9344C38.125 37.6677 37.8723 38.2953 37.3668 38.817C36.8605 39.3397 36.2521 39.601 35.5417 39.601H17.4583ZM31.8927 16.3677L33.7333 18.2344L25.2083 27.0344V28.9344H27.0167L35.574 20.101L37.4146 21.9677L28.8573 30.801C28.6205 31.0455 28.3462 31.2402 28.0345 31.385C27.7219 31.529 27.3934 31.601 27.049 31.601H23.9167C23.5507 31.601 23.2441 31.4735 22.997 31.2184C22.749 30.9624 22.625 30.6455 22.625 30.2677V27.0344C22.625 26.6788 22.6896 26.3397 22.8187 26.017C22.9479 25.6953 23.1309 25.4122 23.3677 25.1677L31.8927 16.3677ZM37.4146 21.9677L31.8927 16.3677L35.1219 13.0344C35.6385 12.501 36.2577 12.2344 36.9793 12.2344C37.7 12.2344 38.308 12.501 38.8031 13.0344L40.6115 14.9344C41.1066 15.4455 41.3542 16.0677 41.3542 16.801C41.3542 17.5344 41.1066 18.1566 40.6115 18.6677L37.4146 21.9677Z" fill="white"/>
</svg>
