<svg width="34" height="34" viewBox="0 0 34 34" fill="none" xmlns="http://www.w3.org/2000/svg">
<circle cx="17" cy="17" r="17" fill="white"/>
<path fill-rule="evenodd" clip-rule="evenodd" d="M23.6193 12.4124C23.7912 12.8546 23.9113 13.3649 23.944 14.1072C23.9767 14.8523 23.9795 15.0897 23.9795 16.9864C23.9795 18.883 23.9713 19.1204 23.9385 19.8655C23.9058 20.6078 23.7857 21.1154 23.6138 21.5603C23.2508 22.499 22.5086 23.2413 21.5697 23.6043C21.1276 23.7762 20.6173 23.8963 19.875 23.929C19.13 23.9618 18.8926 23.9699 16.9959 23.9699C15.0992 23.9699 14.8617 23.9618 14.1168 23.929C13.3744 23.8963 12.8668 23.7762 12.422 23.6043C11.958 23.4297 11.535 23.154 11.1857 22.7992C10.8309 22.4499 10.5554 22.0297 10.378 21.5603C10.206 21.1181 10.0859 20.6078 10.0531 19.8655C10.0204 19.1204 10.0122 18.883 10.0122 16.9864C10.0122 15.0897 10.0204 14.8523 10.0559 14.1044C10.0886 13.3622 10.2087 12.8546 10.3806 12.4098C10.5554 11.9458 10.8309 11.5228 11.1857 11.1735C11.535 10.8159 11.9553 10.543 12.4247 10.3656C12.8668 10.1938 13.3771 10.0737 14.1194 10.0409C14.8645 10.0082 15.1019 10 16.9986 10C18.8952 10 19.1327 10.0082 19.8805 10.0437C20.6228 10.0764 21.1304 10.1965 21.5751 10.3684C22.0391 10.543 22.4621 10.8187 22.8114 11.1735C23.169 11.5228 23.4419 11.9431 23.6193 12.4124ZM22.4456 21.1072C22.5411 20.8616 22.6557 20.4932 22.6857 19.811C22.7185 19.0741 22.7267 18.8558 22.7267 16.9918C22.7267 15.1279 22.7185 14.9069 22.6857 14.17C22.6557 13.4904 22.5411 13.1194 22.4456 12.8737C22.3336 12.5708 22.1562 12.2979 21.9243 12.0713C21.7005 11.8394 21.4248 11.662 21.122 11.5502C20.8763 11.4546 20.5079 11.34 19.8257 11.31C19.0915 11.2773 18.8705 11.269 17.0038 11.269C15.1399 11.269 14.9188 11.2773 14.182 11.31C13.5025 11.34 13.1313 11.4546 12.8857 11.5502C12.5827 11.662 12.3098 11.8394 12.0834 12.0713C11.8486 12.2952 11.6713 12.5708 11.5593 12.8737C11.4638 13.1194 11.3492 13.4878 11.3193 14.17C11.2864 14.9041 11.2783 15.1279 11.2783 16.9918C11.2783 18.8558 11.2864 19.0769 11.3193 19.8137C11.3492 20.4932 11.4638 20.8644 11.5593 21.11C11.6713 21.4129 11.8486 21.6858 12.0806 21.9123C12.3044 22.1443 12.5801 22.3217 12.8829 22.4336C13.1285 22.5291 13.4969 22.6437 14.1792 22.6737C14.9134 22.7065 15.1371 22.7146 17.0011 22.7146C18.8651 22.7146 19.0861 22.7065 19.8229 22.6737C20.5025 22.6437 20.8736 22.5291 21.1192 22.4336C21.7278 22.1989 22.2108 21.7158 22.4456 21.1072Z" fill="#15399E"/>
<path fill-rule="evenodd" clip-rule="evenodd" d="M13.4097 16.9871C13.4097 15.0058 15.0171 13.3984 16.9984 13.3984C18.9797 13.3984 20.5871 15.0058 20.5871 16.9871C20.5871 18.9685 18.9797 20.5758 16.9984 20.5758C15.0171 20.5758 13.4097 18.9685 13.4097 16.9871ZM14.6705 16.9871C14.6705 18.2726 15.713 19.315 16.9984 19.315C18.2838 19.315 19.3263 18.2726 19.3263 16.9871C19.3263 15.7017 18.2838 14.6592 16.9984 14.6592C15.713 14.6592 14.6705 15.7017 14.6705 16.9871Z" fill="#15399E"/>
<path d="M21.5668 13.2558C21.5668 13.7184 21.1917 14.0936 20.7289 14.0936C20.2663 14.0936 19.8911 13.7184 19.8911 13.2558C19.8911 12.793 20.2663 12.418 20.7289 12.418C21.1917 12.418 21.5668 12.793 21.5668 13.2558Z" fill="#15399E"/>
</svg>
