<svg width="32" height="32" viewBox="0 0 32 32" fill="none" xmlns="http://www.w3.org/2000/svg">
<circle cx="16" cy="16" r="16" fill="#2961DC"/>
<path fill-rule="evenodd" clip-rule="evenodd" d="M20 18.7187C19.4933 18.7187 19.04 18.9187 18.6933 19.232L13.94 16.4654C13.9733 16.312 14 16.1587 14 15.9987C14 15.8387 13.9733 15.6854 13.94 15.532L18.64 12.792C19 13.1254 19.4733 13.332 20 13.332C21.1067 13.332 22 12.4387 22 11.332C22 10.2254 21.1067 9.33203 20 9.33203C18.8933 9.33203 18 10.2254 18 11.332C18 11.492 18.0267 11.6454 18.06 11.7987L13.36 14.5387C13 14.2054 12.5267 13.9987 12 13.9987C10.8933 13.9987 10 14.892 10 15.9987C10 17.1054 10.8933 17.9987 12 17.9987C12.5267 17.9987 13 17.792 13.36 17.4587L18.1067 20.232C18.0733 20.372 18.0533 20.5187 18.0533 20.6654C18.0533 21.7387 18.9267 22.612 20 22.612C21.0733 22.612 21.9467 21.7387 21.9467 20.6654C21.9467 19.592 21.0733 18.7187 20 18.7187ZM20 10.6654C20.3667 10.6654 20.6667 10.9654 20.6667 11.332C20.6667 11.6987 20.3667 11.9987 20 11.9987C19.6333 11.9987 19.3333 11.6987 19.3333 11.332C19.3333 10.9654 19.6333 10.6654 20 10.6654ZM12 16.6654C11.6333 16.6654 11.3333 16.3654 11.3333 15.9987C11.3333 15.632 11.6333 15.332 12 15.332C12.3667 15.332 12.6667 15.632 12.6667 15.9987C12.6667 16.3654 12.3667 16.6654 12 16.6654ZM20 21.3454C19.6333 21.3454 19.3333 21.0454 19.3333 20.6787C19.3333 20.312 19.6333 20.012 20 20.012C20.3667 20.012 20.6667 20.312 20.6667 20.6787C20.6667 21.0454 20.3667 21.3454 20 21.3454Z" fill="white"/>
</svg>
