<svg width="34" height="34" viewBox="0 0 34 34" fill="none" xmlns="http://www.w3.org/2000/svg">
<circle cx="17" cy="17" r="17" fill="white"/>
<path d="M24 12.3466C23.4794 12.575 22.9246 12.7264 22.3462 12.7999C22.9412 12.4446 23.3954 11.8864 23.6089 11.2135C23.0541 11.5443 22.4416 11.7779 21.7889 11.9082C21.2621 11.3474 20.5114 11 19.6924 11C18.1034 11 16.8241 12.2897 16.8241 13.8709C16.8241 14.0984 16.8434 14.3171 16.8906 14.5254C14.5045 14.409 12.3931 13.2654 10.9747 11.5232C10.7271 11.9529 10.5819 12.4446 10.5819 12.974C10.5819 13.968 11.0938 14.8491 11.8568 15.3593C11.3956 15.3505 10.9433 15.2166 10.56 15.0058C10.56 15.0145 10.56 15.0259 10.56 15.0373C10.56 16.432 11.5549 17.5905 12.8595 17.8574C12.6259 17.9213 12.3713 17.9519 12.107 17.9519C11.9233 17.9519 11.7377 17.9414 11.5636 17.9029C11.9355 19.0395 12.9908 19.8751 14.2455 19.9023C13.269 20.6661 12.0291 21.1264 10.6869 21.1264C10.4515 21.1264 10.2257 21.1159 10 21.087C11.2714 21.9069 12.7781 22.375 14.403 22.375C19.6845 22.375 22.572 18 22.572 14.2078C22.572 14.0809 22.5676 13.9584 22.5615 13.8368C23.1311 13.4325 23.6097 12.9276 24 12.3466Z" fill="#15399E"/>
</svg>
