<svg width="29" height="29" viewBox="0 0 29 29" fill="none" xmlns="http://www.w3.org/2000/svg">
<g clip-path="url(#clip0_202_2029)">
<path fill-rule="evenodd" clip-rule="evenodd" d="M14.5 26.2812C16.5682 26.2843 18.6005 25.7403 20.3906 24.7044V20.8438C20.3906 19.7622 19.961 18.7249 19.1962 17.9601C18.4314 17.1953 17.3941 16.7656 16.3125 16.7656H12.6875C11.6059 16.7656 10.5686 17.1953 9.80383 17.9601C9.03903 18.7249 8.60938 19.7622 8.60938 20.8438V24.7044C10.3995 25.7403 12.4318 26.2843 14.5 26.2812V26.2812ZM23.1094 20.8438V22.5421C24.6767 20.8642 25.7195 18.765 26.1098 16.5025C26.5001 14.24 26.2207 11.9127 25.3061 9.80676C24.3915 7.70083 22.8815 5.90805 20.9617 4.64878C19.0419 3.38951 16.796 2.71864 14.5 2.71864C12.204 2.71864 9.95812 3.38951 8.03831 4.64878C6.1185 5.90805 4.60848 7.70083 3.69387 9.80676C2.77927 11.9127 2.49993 14.24 2.8902 16.5025C3.28047 18.765 4.32335 20.8642 5.89062 22.5421V20.8438C5.89061 19.4425 6.32347 18.0754 7.13002 16.9295C7.93656 15.7836 9.0774 14.9148 10.3965 14.442C9.71208 13.6548 9.26854 12.6873 9.11881 11.6549C8.96907 10.6226 9.11945 9.56892 9.55201 8.61968C9.98457 7.67043 10.681 6.86564 11.5584 6.30131C12.4357 5.73697 13.4568 5.43691 14.5 5.43691C15.5432 5.43691 16.5643 5.73697 17.4416 6.30131C18.319 6.86564 19.0154 7.67043 19.448 8.61968C19.8805 9.56892 20.0309 10.6226 19.8812 11.6549C19.7315 12.6873 19.2879 13.6548 18.6035 14.442C19.9226 14.9148 21.0634 15.7836 21.87 16.9295C22.6765 18.0754 23.1094 19.4425 23.1094 20.8438V20.8438ZM14.5 29C18.3456 29 22.0338 27.4723 24.753 24.753C27.4723 22.0338 29 18.3456 29 14.5C29 10.6544 27.4723 6.96623 24.753 4.24695C22.0338 1.52767 18.3456 0 14.5 0C10.6544 0 6.96623 1.52767 4.24695 4.24695C1.52767 6.96623 0 10.6544 0 14.5C0 18.3456 1.52767 22.0338 4.24695 24.753C6.96623 27.4723 10.6544 29 14.5 29V29ZM17.2188 10.875C17.2187 11.5961 16.9323 12.2876 16.4224 12.7974C15.9126 13.3073 15.2211 13.5938 14.5 13.5938C13.7789 13.5938 13.0874 13.3073 12.5776 12.7974C12.0677 12.2876 11.7812 11.5961 11.7812 10.875C11.7812 10.1539 12.0677 9.46242 12.5776 8.95255C13.0874 8.44269 13.7789 8.15625 14.5 8.15625C15.2211 8.15625 15.9126 8.44269 16.4224 8.95255C16.9323 9.46242 17.2188 10.1539 17.2188 10.875V10.875Z" fill="#263238"/>
</g>
<defs>
<clipPath id="clip0_202_2029">
<rect width="29" height="29" fill="white"/>
</clipPath>
</defs>
</svg>
