<svg width="27" height="27" viewBox="0 0 27 27" fill="none" xmlns="http://www.w3.org/2000/svg">
<path d="M13.5 2.25C10.3984 2.25 7.875 4.77338 7.875 7.875V11.25H6.75C5.50912 11.25 4.5 12.2591 4.5 13.5V22.5C4.5 23.7409 5.50912 24.75 6.75 24.75H20.25C21.4909 24.75 22.5 23.7409 22.5 22.5V13.5C22.5 12.2591 21.4909 11.25 20.25 11.25H19.125V7.875C19.125 4.77338 16.6016 2.25 13.5 2.25ZM20.25 13.5L20.2523 22.5H6.75V13.5H20.25ZM10.125 11.25V7.875C10.125 6.01425 11.6392 4.5 13.5 4.5C15.3608 4.5 16.875 6.01425 16.875 7.875V11.25H10.125Z" fill="#2B2C43"/>
</svg>
