<svg width="14" height="10" viewBox="0 0 14 10" fill="none" xmlns="http://www.w3.org/2000/svg">
<path d="M12.6 3.57143V1.42857C12.6 1.04969 12.4525 0.686328 12.1899 0.418419C11.9274 0.15051 11.5713 0 11.2 0H2.8C2.4287 0 2.0726 0.15051 1.81005 0.418419C1.5475 0.686328 1.4 1.04969 1.4 1.42857V3.57143C1.0287 3.57143 0.672601 3.72194 0.41005 3.98985C0.1475 4.25776 0 4.62112 0 5V8.57143H0.931L1.4 10H2.1L2.569 8.57143H11.431L11.9 10H12.6L13.069 8.57143H14V5C14 4.62112 13.8525 4.25776 13.5899 3.98985C13.3274 3.72194 12.9713 3.57143 12.6 3.57143ZM7.7 1.42857H11.2V3.57143H7.7M2.8 1.42857H6.3V3.57143H2.8M12.6 7.14286H1.4V5H12.6V7.14286Z" fill="#2D2C2C"/>
</svg>
